<?xml version="1.0" encoding="UTF-8" standalone="no"?>
<!-- Generator: Adobe Illustrator 26.3.1, SVG Export Plug-In . SVG Version: 6.00 Build 0)  -->

<svg
   version="1.1"
   id="Layer_1"
   x="0px"
   y="0px"
   viewBox="0 0 532.5 143.1"
   style="enable-background:new 0 0 532.5 143.1;"
   xml:space="preserve"
   sodipodi:docname="fermo_logo.svg"
   inkscape:version="1.4.3 (1:1.4.3+202512261034+0d15f75042)"
   xmlns:inkscape="http://www.inkscape.org/namespaces/inkscape"
   xmlns:sodipodi="http://sodipodi.sourceforge.net/DTD/sodipodi-0.dtd"
   xmlns="http://www.w3.org/2000/svg"
   xmlns:svg="http://www.w3.org/2000/svg"
   xmlns:rdf="http://www.w3.org/1999/02/22-rdf-syntax-ns#"
   xmlns:cc="http://creativecommons.org/ns#"
   xmlns:dc="http://purl.org/dc/elements/1.1/"><metadata
   id="metadata43"><rdf:RDF><cc:Work
       rdf:about=""><dc:format>image/svg+xml</dc:format><dc:type
         rdf:resource="http://purl.org/dc/dcmitype/StillImage" /><dc:title /></cc:Work></rdf:RDF></metadata><defs
   id="defs41" /><sodipodi:namedview
   pagecolor="#ffffff"
   bordercolor="#666666"
   borderopacity="1"
   objecttolerance="10"
   gridtolerance="10"
   guidetolerance="10"
   inkscape:pageopacity="0"
   inkscape:pageshadow="2"
   inkscape:window-width="2560"
   inkscape:window-height="1376"
   id="namedview39"
   showgrid="false"
   inkscape:zoom="2.3424157"
   inkscape:cx="253.15746"
   inkscape:cy="49.308071"
   inkscape:window-x="0"
   inkscape:window-y="27"
   inkscape:window-maximized="1"
   inkscape:current-layer="Layer_1"
   inkscape:showpageshadow="0"
   inkscape:pagecheckerboard="1"
   inkscape:deskcolor="#505050" />
<style
   type="text/css"
   id="style2">
	.st0{fill:#FFFFFF;}
	.st1{opacity:0.5;fill:#9F9F9F;enable-background:new    ;}
</style>





<g
   id="g1"
   transform="matrix(0.39737414,0,0,0.39737414,160.44914,43.11788)"><path
     class="st0"
     d="M 88.6,40.1 H 56.8 l -2.7,16 H 83.6 L 77.7,90.5 H 48.4 l -8.6,48.8 H 0 L 23.5,3.9 h 71.2 z"
     id="path4"
     style="fill:#116789;fill-opacity:1" /><path
     class="st0"
     d="m 532.5,53.3 c 0,11.4 -1.5,22.4 -4.6,33.1 -3.1,10.7 -7.5,20.3 -13.3,28.7 -5.8,8.4 -12.9,15.2 -21.3,20.3 -8.4,5.1 -17.9,7.7 -28.5,7.7 -7.7,0 -14.4,-1.3 -20.4,-3.8 -5.9,-2.6 -10.9,-6.2 -15,-10.9 -4.1,-4.7 -7.2,-10.4 -9.3,-16.9 -2.1,-6.6 -3.2,-13.9 -3.2,-21.9 0,-11.4 1.5,-22.4 4.6,-33.1 3.1,-10.7 7.5,-20.2 13.2,-28.6 5.7,-8.4 12.8,-15.1 21.1,-20.2 8.4,-5.1 17.8,-7.7 28.4,-7.7 8,0 15,1.3 21,3.8 6,2.6 11,6.2 15,10.8 4,4.7 7,10.3 9.1,16.8 2.1,6.5 3.2,13.8 3.2,21.9 z m -41,5.7 c 0,-5.7 -1,-10.5 -2.9,-14.3 -1.9,-3.8 -4.8,-5.7 -8.8,-5.7 -3.6,0 -6.7,1.5 -9.5,4.5 -2.7,3 -5,6.7 -6.9,11.2 -1.9,4.5 -3.3,9.3 -4.2,14.5 -1,5.2 -1.4,10.1 -1.4,14.7 0,5.6 0.9,10.3 2.6,14.1 1.7,3.8 4.8,5.6 9.3,5.6 3.4,0 6.5,-1.5 9.3,-4.4 2.7,-2.9 5,-6.6 6.9,-11.1 1.8,-4.5 3.3,-9.3 4.2,-14.5 1,-5.3 1.4,-10.1 1.4,-14.6 z"
     id="path6"
     style="fill:#116789;fill-opacity:1" /><g
     id="g12">
	<path
   class="st0"
   d="m 244.7,127.5 c -0.9,-2 -1.9,-4.4 -2.7,-4.4 -0.9,0 -2.1,2.5 -3.2,4.8 -1.7,3.4 -4,8 -8.1,11.5 h 22.5 c -4.7,-3.4 -6.9,-8.3 -8.5,-11.9 z"
   id="path8"
   style="fill:#116789;fill-opacity:1" />
	<path
   class="st0"
   d="m 221.3,139.4 h 3.3 c 6.4,-2.9 9.2,-8.6 11.3,-13 1.7,-3.5 3.2,-6.6 6.2,-6.6 2.9,0.1 4.2,3 5.7,6.3 2.2,4.9 4.8,11 12.8,13.2 h 3 L 250.8,81.5 c 7.1,-3 12.6,-7.9 16.5,-14.7 3.9,-6.8 5.8,-15.1 5.8,-24.9 0,-12.7 -3.5,-22.2 -10.5,-28.4 -6.9,-6.4 -17,-9.6 -30.1,-9.6 h -46.9 l -23.5,135.4 h 38.3 L 209,89.9 h 5 l 7.3,49.5 z m -3.2,-102 h 5.4 c 1.9,0 3.9,0.6 6,1.9 2.1,1.2 3.2,3.8 3.2,7.8 0,5.6 -1.5,9.6 -4.6,12 -3,2.3 -6.4,3.4 -10.2,3.4 h -4.2 l 4.4,-25.1 z"
   id="path10"
   style="fill:#116789;fill-opacity:1" />
</g><g
     id="g22">
	<path
   class="st0"
   d="m 131.6,139.4 c -2.2,-2.4 -4.2,-5.2 -5.9,-8.2 -1.4,2.9 -3.2,5.8 -5.5,8.2 z"
   id="path14"
   style="fill:#116789;fill-opacity:1" />
	<path
   class="st0"
   d="m 135.1,122.9 c -0.8,-2.8 -1.8,-6 -2.6,-6.1 -0.9,0 -2.2,3.4 -3.3,6.5 -0.5,1.2 -1,2.5 -1.5,3.9 2.4,4.9 5.4,9.1 9.1,12.3 h 6.4 c -4.6,-4.9 -6.7,-11.7 -8.1,-16.6 z"
   id="path16"
   style="fill:#116789;fill-opacity:1" />
	<path
   class="st0"
   d="m 168.7,39.1 6.1,-35.2 h -70.2 l -22.3,129 c 7.8,-11.5 12.1,-28.1 15.5,-41.3 3.6,-13.7 5.7,-22 10.6,-21.8 4.7,0.2 6.2,8.1 8.8,21.2 1.9,9.9 4.2,21.8 8.4,31.9 l 0.6,-1.5 c 1.8,-4.8 3.4,-9 6.4,-9 2.9,0.1 4.1,4.2 5.5,8.8 2,6.7 4.5,15 12.3,18.3 h 4.5 l 6.1,-35.8 h -35.6 l 2.9,-16.5 h 29.5 l 5.5,-32.7 h -29.5 l 2.9,-15.3 32,-0.1 v 0 0 z"
   id="path18"
   style="fill:#116789;fill-opacity:1" />
	<path
   class="st0"
   d="m 108.2,73.2 v 0 c -2,0 -5,11.5 -7,19.2 -4,15.3 -9.1,35 -19.5,47 h 31.7 c 5.1,-2.5 8.1,-7.3 10.4,-12.2 -5.2,-11.1 -7.9,-24.6 -10,-35.7 -1.5,-7.2 -3.6,-18.2 -5.6,-18.3 z"
   id="path20"
   style="fill:#116789;fill-opacity:1" />
</g><g
     id="g30">
	<polygon
   class="st0"
   points="266.6,139.3 266.8,139.3 266.6,139.1 "
   id="polygon24" />
	<path
   class="st0"
   d="M 333.9,105.2 C 326.5,86.5 323,66.9 319.6,47.9 l -0.5,-2.6 c -2.7,-15.5 -5,-17.9 -5.7,-18.3 -0.9,0.3 -3.6,3.1 -7.9,20.8 l -0.1,0.4 c -1.3,5.4 -2.6,11 -3.8,16.5 -5.9,26.7 -12,54.3 -31.5,74.7 h 32.3 L 314.5,60 h 0.8 l 2.7,79.4 h 25.6 l 4.1,-10.4 c -6.4,-7.7 -10.9,-16.4 -13.8,-23.8 z"
   id="path26"
   style="fill:#116789;fill-opacity:1" />
	<path
   class="st0"
   d="M 370.4,3.9 342.3,77 h -0.8 l -4,-73.1 h -47.4 l -22.8,131.6 c 18.2,-19.4 24.1,-46.1 29.8,-71.9 1.2,-5.5 2.5,-11.2 3.8,-16.6 l 0.1,-0.4 c 3.7,-15.1 7.1,-24.4 12.6,-24.4 5.5,0 8,8.9 10.3,22.3 l 0.4,2.5 c 3.5,19.6 6.8,38.2 14,56.4 3.3,8.5 7.3,15.2 11.6,20.5 L 375.3,60 h 0.6 l -14.6,74.8 c 2.6,1.8 5.1,3.3 7.5,4.5 h 30.8 L 423,3.9 Z"
   id="path28"
   style="fill:#116789;fill-opacity:1" />
</g><g
     id="g36">
	<path
   class="st1"
   d="m 127.6,127.1 c -0.5,1.3 -1.1,2.7 -1.8,4.1 1.7,3 3.6,5.8 5.9,8.2 h 5.1 C 133,136.3 130,132 127.6,127.1 Z"
   id="path32"
   style="fill:#000000;fill-opacity:0" />
	<path
   class="st1"
   d="m 108.2,73.2 v 0 c 1.9,0.1 4.1,11.1 5.5,18.3 2.2,11.1 4.8,24.6 10,35.7 0.7,-1.5 1.3,-3 1.9,-4.5 -4.2,-10.1 -6.5,-22 -8.4,-31.9 -2.5,-13.1 -4.1,-20.9 -8.8,-21.2 -4.9,-0.2 -7,8.1 -10.6,21.8 -3.4,13.2 -7.8,29.8 -15.5,41.3 l -1.1,6.6 h 0.5 c 10.4,-12 15.5,-31.7 19.5,-47 2,-7.5 5,-19.1 7,-19.1 z"
   id="path34"
   style="fill:#000000;fill-opacity:0" />
</g></g>
</svg>
