<?xml version="1.0" encoding="UTF-8" standalone="no"?>
<!-- Created with Inkscape (http://www.inkscape.org/) -->

<svg
   width="199.31664mm"
   height="72.81826mm"
   viewBox="0 0 199.31663 72.818261"
   version="1.1"
   id="svg2210"
   inkscape:version="1.4.3 (1:1.4.3+202512261034+0d15f75042)"
   sodipodi:docname="mite_logo.svg"
   enable-background="new"
   xmlns:inkscape="http://www.inkscape.org/namespaces/inkscape"
   xmlns:sodipodi="http://sodipodi.sourceforge.net/DTD/sodipodi-0.dtd"
   xmlns="http://www.w3.org/2000/svg"
   xmlns:svg="http://www.w3.org/2000/svg"
   xmlns:rdf="http://www.w3.org/1999/02/22-rdf-syntax-ns#"
   xmlns:cc="http://creativecommons.org/ns#"
   xmlns:dc="http://purl.org/dc/elements/1.1/">
  <defs
     id="defs2204" />
  <sodipodi:namedview
     id="base"
     pagecolor="#ffffff"
     bordercolor="#666666"
     borderopacity="1.0"
     inkscape:pageopacity="0.0"
     inkscape:pageshadow="2"
     inkscape:zoom="0.98994949"
     inkscape:cx="372.74629"
     inkscape:cy="139.90613"
     inkscape:document-units="mm"
     inkscape:current-layer="layer1"
     showgrid="false"
     inkscape:window-width="2560"
     inkscape:window-height="1376"
     inkscape:window-x="0"
     inkscape:window-y="27"
     inkscape:window-maximized="1"
     inkscape:showpageshadow="0"
     inkscape:pagecheckerboard="1"
     inkscape:deskcolor="#505050" />
  <metadata
     id="metadata2207">
    <rdf:RDF>
      <cc:Work
         rdf:about="">
        <dc:format>image/svg+xml</dc:format>
        <dc:type
           rdf:resource="http://purl.org/dc/dcmitype/StillImage" />
      </cc:Work>
    </rdf:RDF>
  </metadata>
  <g
     inkscape:label="Layer 1"
     inkscape:groupmode="layer"
     id="layer1"
     style="opacity:1"
     transform="translate(-3.1512615,-25.923427)">
    <g
       id="g15894"
       transform="matrix(0.70489271,0,0,0.70489271,-578.48283,-52.272356)"
       inkscape:export-filename="/home/mitz/Desktop/mite.png"
       inkscape:export-xdpi="112"
       inkscape:export-ydpi="112">
      <path
         d="m 1046.1135,191.66382 h -36.2893 v -50.80497 h 36.2893 v 9.84994 h -24.4397 v 10.2943 h 19.2555 v 9.5537 h -19.2555 v 11.25709 h 24.4397 z"
         style="font-style:normal;font-variant:normal;font-weight:normal;font-stretch:normal;font-size:69.9071px;line-height:1;font-family:UnYetgul;-inkscape-font-specification:UnYetgul;letter-spacing:0px;word-spacing:0px;fill:#116789;fill-opacity:1;stroke:none;stroke-width:1.1109"
         id="path15856"
         inkscape:connector-curvature="0" />
      <g
         transform="matrix(2.7142302,0,0,2.7142302,780.74354,51.747967)"
         id="g4280">
        <path
           d="m 54.668317,51.549 -0.457,-7.546 c -0.08,-1.182 -0.133,-2.148 -0.133,-3.76 h -0.027 c -0.215,1.584 -0.349,2.523 -0.645,3.518 l -2.283,7.788 h -4.082 l -1.986,-7.573 c -0.27,-1.047 -0.485,-2.094 -0.618,-3.76 h -0.027 c 0,1.666 0,2.686 -0.081,3.867 l -0.375,7.466 h -4.834 l 1.827,-18.718 h 5.881 l 1.826,7.412 c 0.27,1.047 0.457,2.041 0.618,3.545 h 0.027 c 0.161,-1.424 0.375,-2.337 0.726,-3.813 l 1.907,-7.144 h 5.693 l 1.716,18.718 h -4.673"
           id="path4284"
           inkscape:connector-curvature="0"
           style="fill:#116789;fill-opacity:1" />
      </g>
      <g
         transform="matrix(2.7142302,0,0,2.7142302,772.25614,51.747967)"
         id="g4286">
        <polyline
           points="65.127,51.549 65.127,32.907 69.8,32.477 69.8,51.549 65.127,51.549   "
           id="polyline4290"
           style="fill:#116789;fill-opacity:1" />
      </g>
      <g
         id="g15884">
        <polyline
           style="fill:#b1b695;fill-opacity:1"
           id="polyline4332"
           points="57.223,57.832 50.473,53.873 50.473,55.701 41.777,55.701 42.554,60.201 50.473,60.201    50.473,61.792 57.223,57.832  "
           transform="matrix(2.7142302,0,0,2.7142302,851.36676,-12.717736)" />
        <polyline
           style="fill:#116789;fill-opacity:1"
           id="polyline4306-8"
           points="89.766,51.549 89.766,37.907 94.438,37.477 94.438,51.549 89.766,51.549    "
           transform="matrix(2.7142302,0,0,2.4926339,734.97559,63.171037)" />
      </g>
    </g>
  </g>
</svg>
